<svg xmlns="http://www.w3.org/2000/svg" xmlns:xlink="http://www.w3.org/1999/xlink" width="480" zoomAndPan="magnify" viewBox="0 0 360 33.749998" height="45" preserveAspectRatio="xMidYMid meet" version="1.2"><defs><clipPath id="35eb21bd06"><path d="M 353 7 L 358.675781 7 L 358.675781 26 L 353 26 Z M 353 7 "/></clipPath></defs><g id="4c606c2204"><g style="fill:#3f1918;fill-opacity:1;"><g transform="translate(1.502028, 25.75516)"><path style="stroke:none" d="M 15.265625 -17.671875 L 12.859375 -14.765625 C 12.648438 -15.398438 12.378906 -16.003906 12.046875 -16.578125 C 11.710938 -17.148438 11.3125 -17.648438 10.84375 -18.078125 C 10.382812 -18.503906 9.863281 -18.847656 9.28125 -19.109375 C 8.707031 -19.367188 8.0625 -19.5 7.34375 -19.5 C 6.820312 -19.5 6.34375 -19.40625 5.90625 -19.21875 C 5.46875 -19.03125 5.082031 -18.769531 4.75 -18.4375 C 4.414062 -18.113281 4.15625 -17.722656 3.96875 -17.265625 C 3.789062 -16.816406 3.703125 -16.335938 3.703125 -15.828125 C 3.703125 -15.296875 3.800781 -14.796875 4 -14.328125 C 4.195312 -13.859375 4.460938 -13.429688 4.796875 -13.046875 C 5.128906 -12.671875 5.515625 -12.34375 5.953125 -12.0625 C 6.390625 -11.789062 6.84375 -11.578125 7.3125 -11.421875 C 7.78125 -11.265625 8.269531 -11.082031 8.78125 -10.875 C 9.300781 -10.675781 9.804688 -10.441406 10.296875 -10.171875 C 10.796875 -9.910156 11.269531 -9.613281 11.71875 -9.28125 C 12.175781 -8.945312 12.578125 -8.578125 12.921875 -8.171875 C 13.265625 -7.765625 13.535156 -7.304688 13.734375 -6.796875 C 13.929688 -6.296875 14.03125 -5.75 14.03125 -5.15625 C 14.03125 -4.300781 13.84375 -3.53125 13.46875 -2.84375 C 13.09375 -2.164062 12.597656 -1.59375 11.984375 -1.125 C 11.367188 -0.65625 10.664062 -0.296875 9.875 -0.046875 C 9.09375 0.203125 8.296875 0.328125 7.484375 0.328125 C 6.929688 0.328125 6.367188 0.242188 5.796875 0.078125 C 5.234375 -0.078125 4.691406 -0.296875 4.171875 -0.578125 C 3.648438 -0.859375 3.160156 -1.1875 2.703125 -1.5625 C 2.242188 -1.9375 1.847656 -2.335938 1.515625 -2.765625 L 3.84375 -5.4375 C 3.988281 -4.976562 4.238281 -4.488281 4.59375 -3.96875 C 4.945312 -3.457031 5.363281 -2.976562 5.84375 -2.53125 C 6.320312 -2.09375 6.835938 -1.726562 7.390625 -1.4375 C 7.941406 -1.144531 8.472656 -1 8.984375 -1 C 9.285156 -1 9.59375 -1.078125 9.90625 -1.234375 C 10.21875 -1.390625 10.503906 -1.585938 10.765625 -1.828125 C 11.035156 -2.066406 11.253906 -2.328125 11.421875 -2.609375 C 11.597656 -2.898438 11.6875 -3.1875 11.6875 -3.46875 C 11.6875 -3.882812 11.597656 -4.28125 11.421875 -4.65625 C 11.253906 -5.039062 11.03125 -5.398438 10.75 -5.734375 C 10.46875 -6.066406 10.140625 -6.375 9.765625 -6.65625 C 9.398438 -6.9375 9.019531 -7.1875 8.625 -7.40625 C 8.226562 -7.632812 7.832031 -7.832031 7.4375 -8 C 7.039062 -8.164062 6.675781 -8.300781 6.34375 -8.40625 C 5.675781 -8.601562 5.03125 -8.882812 4.40625 -9.25 C 3.78125 -9.625 3.222656 -10.070312 2.734375 -10.59375 C 2.242188 -11.125 1.851562 -11.71875 1.5625 -12.375 C 1.269531 -13.03125 1.125 -13.734375 1.125 -14.484375 C 1.125 -15.117188 1.222656 -15.722656 1.421875 -16.296875 C 1.617188 -16.867188 1.894531 -17.398438 2.25 -17.890625 C 2.601562 -18.378906 3.019531 -18.820312 3.5 -19.21875 C 3.976562 -19.613281 4.492188 -19.945312 5.046875 -20.21875 C 5.597656 -20.488281 6.175781 -20.695312 6.78125 -20.84375 C 7.382812 -21 7.988281 -21.078125 8.59375 -21.078125 C 9.9375 -21.078125 11.179688 -20.773438 12.328125 -20.171875 C 13.472656 -19.578125 14.453125 -18.742188 15.265625 -17.671875 Z M 15.265625 -17.671875 "/></g></g><g style="fill:#3f1918;fill-opacity:1;"><g transform="translate(17.35925, 25.75516)"><path style="stroke:none" d="M 10.34375 -19.25 L 8.546875 -18.09375 C 8.378906 -18.53125 8.128906 -18.90625 7.796875 -19.21875 C 7.472656 -19.539062 7.054688 -19.703125 6.546875 -19.703125 C 6.140625 -19.703125 5.8125 -19.609375 5.5625 -19.421875 C 5.3125 -19.234375 5.117188 -18.992188 4.984375 -18.703125 C 4.859375 -18.410156 4.773438 -18.085938 4.734375 -17.734375 C 4.691406 -17.390625 4.671875 -17.054688 4.671875 -16.734375 L 4.671875 -11.09375 L 8.421875 -11.09375 L 7.8125 -9.65625 L 4.671875 -9.65625 L 4.671875 2.90625 L 2.015625 4.03125 L 2.015625 -9.65625 L 0.59375 -9.65625 L 1.203125 -11.09375 L 2.015625 -11.09375 L 2.015625 -14.15625 C 2.015625 -14.9375 2.097656 -15.71875 2.265625 -16.5 C 2.441406 -17.289062 2.726562 -18 3.125 -18.625 C 3.53125 -19.257812 4.054688 -19.773438 4.703125 -20.171875 C 5.359375 -20.566406 6.160156 -20.765625 7.109375 -20.765625 C 7.398438 -20.765625 7.691406 -20.726562 7.984375 -20.65625 C 8.285156 -20.59375 8.578125 -20.492188 8.859375 -20.359375 C 9.148438 -20.234375 9.421875 -20.078125 9.671875 -19.890625 C 9.929688 -19.703125 10.15625 -19.488281 10.34375 -19.25 Z M 10.34375 -19.25 "/></g></g><g style="fill:#3f1918;fill-opacity:1;"><g transform="translate(25.574614, 25.75516)"><path style="stroke:none" d="M 4.453125 -18.703125 L 3.703125 -13.46875 L 2.296875 -13.03125 L 1.4375 -17.671875 Z M 6.4375 -1.671875 C 6.21875 -1.203125 5.960938 -0.84375 5.671875 -0.59375 C 5.378906 -0.351562 5.097656 -0.175781 4.828125 -0.0625 C 4.515625 0.0703125 4.195312 0.148438 3.875 0.171875 C 3.445312 0.171875 3.09375 0.101562 2.8125 -0.03125 C 2.539062 -0.164062 2.320312 -0.34375 2.15625 -0.5625 C 2 -0.78125 1.890625 -1.023438 1.828125 -1.296875 C 1.765625 -1.578125 1.734375 -1.863281 1.734375 -2.15625 L 1.734375 -10.1875 L 4.375 -11.09375 L 4.375 -2.078125 C 4.375 -1.847656 4.425781 -1.664062 4.53125 -1.53125 C 4.632812 -1.394531 4.769531 -1.320312 4.9375 -1.3125 C 5.101562 -1.3125 5.285156 -1.375 5.484375 -1.5 C 5.679688 -1.625 5.867188 -1.828125 6.046875 -2.109375 Z M 6.4375 -1.671875 "/></g></g><g style="fill:#3f1918;fill-opacity:1;"><g transform="translate(32.241534, 25.75516)"><path style="stroke:none" d="M 13.390625 -1.671875 C 13.273438 -1.421875 13.125 -1.1875 12.9375 -0.96875 C 12.757812 -0.75 12.554688 -0.550781 12.328125 -0.375 C 12.109375 -0.207031 11.867188 -0.078125 11.609375 0.015625 C 11.347656 0.117188 11.082031 0.171875 10.8125 0.171875 C 10.050781 0.171875 9.5 -0.0351562 9.15625 -0.453125 C 8.820312 -0.867188 8.65625 -1.4375 8.65625 -2.15625 L 8.65625 -7.984375 C 8.65625 -8.046875 8.648438 -8.125 8.640625 -8.21875 C 8.640625 -8.3125 8.625 -8.394531 8.59375 -8.46875 C 8.570312 -8.550781 8.535156 -8.617188 8.484375 -8.671875 C 8.441406 -8.734375 8.375 -8.765625 8.28125 -8.765625 C 8.019531 -8.765625 7.75 -8.601562 7.46875 -8.28125 C 7.195312 -7.957031 6.9375 -7.535156 6.6875 -7.015625 C 6.4375 -6.503906 6.203125 -5.925781 5.984375 -5.28125 C 5.765625 -4.644531 5.570312 -4.015625 5.40625 -3.390625 C 5.25 -2.765625 5.125 -2.175781 5.03125 -1.625 C 4.945312 -1.082031 4.90625 -0.648438 4.90625 -0.328125 L 2.296875 0.59375 L 2.296875 -9.046875 C 2.296875 -9.234375 2.242188 -9.40625 2.140625 -9.5625 C 2.046875 -9.726562 1.898438 -9.8125 1.703125 -9.8125 C 1.460938 -9.8125 1.242188 -9.722656 1.046875 -9.546875 C 0.859375 -9.367188 0.707031 -9.191406 0.59375 -9.015625 L 0.203125 -9.453125 C 0.316406 -9.691406 0.460938 -9.921875 0.640625 -10.140625 C 0.816406 -10.367188 1.015625 -10.566406 1.234375 -10.734375 C 1.460938 -10.910156 1.707031 -11.046875 1.96875 -11.140625 C 2.226562 -11.242188 2.503906 -11.296875 2.796875 -11.296875 C 3.535156 -11.296875 4.070312 -11.085938 4.40625 -10.671875 C 4.738281 -10.253906 4.90625 -9.691406 4.90625 -8.984375 L 4.90625 -4.3125 C 4.988281 -4.707031 5.101562 -5.15625 5.25 -5.65625 C 5.394531 -6.15625 5.570312 -6.660156 5.78125 -7.171875 C 6 -7.691406 6.238281 -8.195312 6.5 -8.6875 C 6.757812 -9.1875 7.046875 -9.628906 7.359375 -10.015625 C 7.679688 -10.398438 8.023438 -10.707031 8.390625 -10.9375 C 8.765625 -11.175781 9.171875 -11.296875 9.609375 -11.296875 C 10.054688 -11.296875 10.394531 -11.195312 10.625 -11 C 10.851562 -10.800781 11.015625 -10.550781 11.109375 -10.25 C 11.210938 -9.957031 11.269531 -9.628906 11.28125 -9.265625 C 11.289062 -8.898438 11.296875 -8.550781 11.296875 -8.21875 L 11.296875 -2.078125 C 11.296875 -1.890625 11.34375 -1.710938 11.4375 -1.546875 C 11.53125 -1.390625 11.679688 -1.3125 11.890625 -1.3125 C 12.109375 -1.3125 12.3125 -1.398438 12.5 -1.578125 C 12.695312 -1.753906 12.851562 -1.929688 12.96875 -2.109375 Z M 13.390625 -1.671875 "/></g></g><g style="fill:#3f1918;fill-opacity:1;"><g transform="translate(45.804763, 25.75516)"><path style="stroke:none" d="M 6.75 -1.671875 C 6.53125 -1.203125 6.273438 -0.84375 5.984375 -0.59375 C 5.703125 -0.351562 5.421875 -0.175781 5.140625 -0.0625 C 4.828125 0.0703125 4.503906 0.148438 4.171875 0.171875 C 3.742188 0.171875 3.390625 0.101562 3.109375 -0.03125 C 2.835938 -0.164062 2.625 -0.34375 2.46875 -0.5625 C 2.3125 -0.78125 2.203125 -1.023438 2.140625 -1.296875 C 2.078125 -1.578125 2.046875 -1.863281 2.046875 -2.15625 L 2.046875 -9.65625 L 0.53125 -9.65625 L 1.140625 -11.09375 L 2.046875 -11.09375 L 2.046875 -16.171875 L 4.671875 -17.09375 L 4.671875 -11.09375 L 7.390625 -11.09375 L 6.8125 -9.65625 L 4.671875 -9.65625 L 4.671875 -2.078125 C 4.671875 -1.847656 4.722656 -1.664062 4.828125 -1.53125 C 4.929688 -1.394531 5.0625 -1.320312 5.21875 -1.3125 C 5.382812 -1.3125 5.566406 -1.375 5.765625 -1.5 C 5.972656 -1.625 6.171875 -1.828125 6.359375 -2.109375 Z M 6.75 -1.671875 "/></g></g><g style="fill:#3f1918;fill-opacity:1;"><g transform="translate(53.50398, 25.75516)"><path style="stroke:none" d="M 11.15625 -2.796875 C 10.820312 -2.367188 10.457031 -1.96875 10.0625 -1.59375 C 9.664062 -1.21875 9.234375 -0.890625 8.765625 -0.609375 C 8.304688 -0.335938 7.816406 -0.125 7.296875 0.03125 C 6.773438 0.195312 6.238281 0.28125 5.6875 0.28125 C 4.976562 0.28125 4.328125 0.15625 3.734375 -0.09375 C 3.148438 -0.34375 2.640625 -0.691406 2.203125 -1.140625 C 1.773438 -1.585938 1.441406 -2.113281 1.203125 -2.71875 C 0.960938 -3.320312 0.84375 -3.972656 0.84375 -4.671875 C 0.84375 -5.242188 0.921875 -5.804688 1.078125 -6.359375 C 1.242188 -6.921875 1.472656 -7.441406 1.765625 -7.921875 C 2.066406 -8.410156 2.421875 -8.863281 2.828125 -9.28125 C 3.234375 -9.695312 3.679688 -10.050781 4.171875 -10.34375 C 4.660156 -10.644531 5.175781 -10.878906 5.71875 -11.046875 C 6.257812 -11.210938 6.816406 -11.296875 7.390625 -11.296875 C 7.796875 -11.296875 8.175781 -11.25 8.53125 -11.15625 C 8.894531 -11.0625 9.210938 -10.910156 9.484375 -10.703125 C 9.765625 -10.492188 9.984375 -10.226562 10.140625 -9.90625 C 10.304688 -9.59375 10.390625 -9.210938 10.390625 -8.765625 C 10.390625 -8.410156 10.28125 -8.03125 10.0625 -7.625 C 9.851562 -7.226562 9.570312 -6.828125 9.21875 -6.421875 C 8.875 -6.015625 8.484375 -5.617188 8.046875 -5.234375 C 7.609375 -4.847656 7.160156 -4.488281 6.703125 -4.15625 C 6.242188 -3.832031 5.804688 -3.546875 5.390625 -3.296875 C 4.972656 -3.046875 4.601562 -2.851562 4.28125 -2.71875 C 4.632812 -2.28125 5.046875 -1.921875 5.515625 -1.640625 C 5.984375 -1.367188 6.484375 -1.234375 7.015625 -1.234375 C 7.347656 -1.234375 7.6875 -1.296875 8.03125 -1.421875 C 8.375 -1.554688 8.703125 -1.722656 9.015625 -1.921875 C 9.335938 -2.117188 9.644531 -2.335938 9.9375 -2.578125 C 10.226562 -2.816406 10.488281 -3.039062 10.71875 -3.25 Z M 7.703125 -8.25 C 7.703125 -8.46875 7.664062 -8.675781 7.59375 -8.875 C 7.519531 -9.070312 7.414062 -9.242188 7.28125 -9.390625 C 7.144531 -9.546875 6.984375 -9.664062 6.796875 -9.75 C 6.609375 -9.84375 6.398438 -9.890625 6.171875 -9.890625 C 5.734375 -9.890625 5.332031 -9.738281 4.96875 -9.4375 C 4.613281 -9.132812 4.300781 -8.765625 4.03125 -8.328125 C 3.769531 -7.890625 3.566406 -7.421875 3.421875 -6.921875 C 3.273438 -6.429688 3.203125 -6.003906 3.203125 -5.640625 C 3.203125 -5.273438 3.257812 -4.898438 3.375 -4.515625 C 3.488281 -4.128906 3.644531 -3.757812 3.84375 -3.40625 C 4.226562 -3.625 4.644531 -3.914062 5.09375 -4.28125 C 5.539062 -4.65625 5.957031 -5.0625 6.34375 -5.5 C 6.726562 -5.945312 7.050781 -6.410156 7.3125 -6.890625 C 7.570312 -7.367188 7.703125 -7.820312 7.703125 -8.25 Z M 7.703125 -8.25 "/></g></g><g style="fill:#3f1918;fill-opacity:1;"><g transform="translate(65.160333, 25.75516)"><path style="stroke:none" d="M 6.5 -1.671875 C 6.382812 -1.421875 6.238281 -1.1875 6.0625 -0.96875 C 5.882812 -0.75 5.679688 -0.550781 5.453125 -0.375 C 5.234375 -0.207031 4.992188 -0.078125 4.734375 0.015625 C 4.472656 0.117188 4.203125 0.171875 3.921875 0.171875 C 3.179688 0.171875 2.640625 -0.0351562 2.296875 -0.453125 C 1.960938 -0.867188 1.796875 -1.4375 1.796875 -2.15625 L 1.796875 -19.640625 L 4.4375 -20.5625 L 4.4375 -2.078125 C 4.4375 -1.890625 4.476562 -1.710938 4.5625 -1.546875 C 4.644531 -1.390625 4.796875 -1.3125 5.015625 -1.3125 C 5.234375 -1.3125 5.441406 -1.398438 5.640625 -1.578125 C 5.835938 -1.753906 5.992188 -1.929688 6.109375 -2.109375 Z M 6.5 -1.671875 "/></g></g><g style="fill:#3f1918;fill-opacity:1;"><g transform="translate(71.884603, 25.75516)"><path style="stroke:none" d="M 11.15625 -2.796875 C 10.820312 -2.367188 10.457031 -1.96875 10.0625 -1.59375 C 9.664062 -1.21875 9.234375 -0.890625 8.765625 -0.609375 C 8.304688 -0.335938 7.816406 -0.125 7.296875 0.03125 C 6.773438 0.195312 6.238281 0.28125 5.6875 0.28125 C 4.976562 0.28125 4.328125 0.15625 3.734375 -0.09375 C 3.148438 -0.34375 2.640625 -0.691406 2.203125 -1.140625 C 1.773438 -1.585938 1.441406 -2.113281 1.203125 -2.71875 C 0.960938 -3.320312 0.84375 -3.972656 0.84375 -4.671875 C 0.84375 -5.242188 0.921875 -5.804688 1.078125 -6.359375 C 1.242188 -6.921875 1.472656 -7.441406 1.765625 -7.921875 C 2.066406 -8.410156 2.421875 -8.863281 2.828125 -9.28125 C 3.234375 -9.695312 3.679688 -10.050781 4.171875 -10.34375 C 4.660156 -10.644531 5.175781 -10.878906 5.71875 -11.046875 C 6.257812 -11.210938 6.816406 -11.296875 7.390625 -11.296875 C 7.796875 -11.296875 8.175781 -11.25 8.53125 -11.15625 C 8.894531 -11.0625 9.210938 -10.910156 9.484375 -10.703125 C 9.765625 -10.492188 9.984375 -10.226562 10.140625 -9.90625 C 10.304688 -9.59375 10.390625 -9.210938 10.390625 -8.765625 C 10.390625 -8.410156 10.28125 -8.03125 10.0625 -7.625 C 9.851562 -7.226562 9.570312 -6.828125 9.21875 -6.421875 C 8.875 -6.015625 8.484375 -5.617188 8.046875 -5.234375 C 7.609375 -4.847656 7.160156 -4.488281 6.703125 -4.15625 C 6.242188 -3.832031 5.804688 -3.546875 5.390625 -3.296875 C 4.972656 -3.046875 4.601562 -2.851562 4.28125 -2.71875 C 4.632812 -2.28125 5.046875 -1.921875 5.515625 -1.640625 C 5.984375 -1.367188 6.484375 -1.234375 7.015625 -1.234375 C 7.347656 -1.234375 7.6875 -1.296875 8.03125 -1.421875 C 8.375 -1.554688 8.703125 -1.722656 9.015625 -1.921875 C 9.335938 -2.117188 9.644531 -2.335938 9.9375 -2.578125 C 10.226562 -2.816406 10.488281 -3.039062 10.71875 -3.25 Z M 7.703125 -8.25 C 7.703125 -8.46875 7.664062 -8.675781 7.59375 -8.875 C 7.519531 -9.070312 7.414062 -9.242188 7.28125 -9.390625 C 7.144531 -9.546875 6.984375 -9.664062 6.796875 -9.75 C 6.609375 -9.84375 6.398438 -9.890625 6.171875 -9.890625 C 5.734375 -9.890625 5.332031 -9.738281 4.96875 -9.4375 C 4.613281 -9.132812 4.300781 -8.765625 4.03125 -8.328125 C 3.769531 -7.890625 3.566406 -7.421875 3.421875 -6.921875 C 3.273438 -6.429688 3.203125 -6.003906 3.203125 -5.640625 C 3.203125 -5.273438 3.257812 -4.898438 3.375 -4.515625 C 3.488281 -4.128906 3.644531 -3.757812 3.84375 -3.40625 C 4.226562 -3.625 4.644531 -3.914062 5.09375 -4.28125 C 5.539062 -4.65625 5.957031 -5.0625 6.34375 -5.5 C 6.726562 -5.945312 7.050781 -6.410156 7.3125 -6.890625 C 7.570312 -7.367188 7.703125 -7.820312 7.703125 -8.25 Z M 7.703125 -8.25 "/></g></g><g style="fill:#3f1918;fill-opacity:1;"><g transform="translate(83.540956, 25.75516)"><path style="stroke:none" d=""/></g></g><g style="fill:#3f1918;fill-opacity:1;"><g transform="translate(89.734735, 25.75516)"><path style="stroke:none" d="M 15.265625 -17.671875 L 12.859375 -14.765625 C 12.648438 -15.398438 12.378906 -16.003906 12.046875 -16.578125 C 11.710938 -17.148438 11.3125 -17.648438 10.84375 -18.078125 C 10.382812 -18.503906 9.863281 -18.847656 9.28125 -19.109375 C 8.707031 -19.367188 8.0625 -19.5 7.34375 -19.5 C 6.820312 -19.5 6.34375 -19.40625 5.90625 -19.21875 C 5.46875 -19.03125 5.082031 -18.769531 4.75 -18.4375 C 4.414062 -18.113281 4.15625 -17.722656 3.96875 -17.265625 C 3.789062 -16.816406 3.703125 -16.335938 3.703125 -15.828125 C 3.703125 -15.296875 3.800781 -14.796875 4 -14.328125 C 4.195312 -13.859375 4.460938 -13.429688 4.796875 -13.046875 C 5.128906 -12.671875 5.515625 -12.34375 5.953125 -12.0625 C 6.390625 -11.789062 6.84375 -11.578125 7.3125 -11.421875 C 7.78125 -11.265625 8.269531 -11.082031 8.78125 -10.875 C 9.300781 -10.675781 9.804688 -10.441406 10.296875 -10.171875 C 10.796875 -9.910156 11.269531 -9.613281 11.71875 -9.28125 C 12.175781 -8.945312 12.578125 -8.578125 12.921875 -8.171875 C 13.265625 -7.765625 13.535156 -7.304688 13.734375 -6.796875 C 13.929688 -6.296875 14.03125 -5.75 14.03125 -5.15625 C 14.03125 -4.300781 13.84375 -3.53125 13.46875 -2.84375 C 13.09375 -2.164062 12.597656 -1.59375 11.984375 -1.125 C 11.367188 -0.65625 10.664062 -0.296875 9.875 -0.046875 C 9.09375 0.203125 8.296875 0.328125 7.484375 0.328125 C 6.929688 0.328125 6.367188 0.242188 5.796875 0.078125 C 5.234375 -0.078125 4.691406 -0.296875 4.171875 -0.578125 C 3.648438 -0.859375 3.160156 -1.1875 2.703125 -1.5625 C 2.242188 -1.9375 1.847656 -2.335938 1.515625 -2.765625 L 3.84375 -5.4375 C 3.988281 -4.976562 4.238281 -4.488281 4.59375 -3.96875 C 4.945312 -3.457031 5.363281 -2.976562 5.84375 -2.53125 C 6.320312 -2.09375 6.835938 -1.726562 7.390625 -1.4375 C 7.941406 -1.144531 8.472656 -1 8.984375 -1 C 9.285156 -1 9.59375 -1.078125 9.90625 -1.234375 C 10.21875 -1.390625 10.503906 -1.585938 10.765625 -1.828125 C 11.035156 -2.066406 11.253906 -2.328125 11.421875 -2.609375 C 11.597656 -2.898438 11.6875 -3.1875 11.6875 -3.46875 C 11.6875 -3.882812 11.597656 -4.28125 11.421875 -4.65625 C 11.253906 -5.039062 11.03125 -5.398438 10.75 -5.734375 C 10.46875 -6.066406 10.140625 -6.375 9.765625 -6.65625 C 9.398438 -6.9375 9.019531 -7.1875 8.625 -7.40625 C 8.226562 -7.632812 7.832031 -7.832031 7.4375 -8 C 7.039062 -8.164062 6.675781 -8.300781 6.34375 -8.40625 C 5.675781 -8.601562 5.03125 -8.882812 4.40625 -9.25 C 3.78125 -9.625 3.222656 -10.070312 2.734375 -10.59375 C 2.242188 -11.125 1.851562 -11.71875 1.5625 -12.375 C 1.269531 -13.03125 1.125 -13.734375 1.125 -14.484375 C 1.125 -15.117188 1.222656 -15.722656 1.421875 -16.296875 C 1.617188 -16.867188 1.894531 -17.398438 2.25 -17.890625 C 2.601562 -18.378906 3.019531 -18.820312 3.5 -19.21875 C 3.976562 -19.613281 4.492188 -19.945312 5.046875 -20.21875 C 5.597656 -20.488281 6.175781 -20.695312 6.78125 -20.84375 C 7.382812 -21 7.988281 -21.078125 8.59375 -21.078125 C 9.9375 -21.078125 11.179688 -20.773438 12.328125 -20.171875 C 13.472656 -19.578125 14.453125 -18.742188 15.265625 -17.671875 Z M 15.265625 -17.671875 "/></g></g><g style="fill:#3f1918;fill-opacity:1;"><g transform="translate(105.591956, 25.75516)"><path style="stroke:none" d="M 11.1875 -3.109375 C 10.851562 -2.679688 10.484375 -2.265625 10.078125 -1.859375 C 9.679688 -1.453125 9.25 -1.085938 8.78125 -0.765625 C 8.320312 -0.453125 7.832031 -0.195312 7.3125 0 C 6.800781 0.1875 6.269531 0.28125 5.71875 0.28125 C 5.007812 0.28125 4.359375 0.160156 3.765625 -0.078125 C 3.171875 -0.328125 2.660156 -0.679688 2.234375 -1.140625 C 1.804688 -1.597656 1.472656 -2.148438 1.234375 -2.796875 C 0.992188 -3.453125 0.875 -4.179688 0.875 -4.984375 C 0.875 -5.828125 1.039062 -6.625 1.375 -7.375 C 1.71875 -8.132812 2.171875 -8.796875 2.734375 -9.359375 C 3.304688 -9.929688 3.96875 -10.378906 4.71875 -10.703125 C 5.476562 -11.035156 6.273438 -11.203125 7.109375 -11.203125 C 7.429688 -11.203125 7.757812 -11.171875 8.09375 -11.109375 C 8.425781 -11.054688 8.738281 -10.960938 9.03125 -10.828125 C 9.332031 -10.703125 9.609375 -10.53125 9.859375 -10.3125 C 10.117188 -10.09375 10.335938 -9.835938 10.515625 -9.546875 L 8.453125 -8.421875 C 8.359375 -8.648438 8.222656 -8.851562 8.046875 -9.03125 C 7.867188 -9.207031 7.671875 -9.351562 7.453125 -9.46875 C 7.234375 -9.582031 7 -9.664062 6.75 -9.71875 C 6.507812 -9.78125 6.273438 -9.8125 6.046875 -9.8125 C 5.585938 -9.8125 5.175781 -9.707031 4.8125 -9.5 C 4.445312 -9.289062 4.140625 -9.019531 3.890625 -8.6875 C 3.640625 -8.363281 3.445312 -7.992188 3.3125 -7.578125 C 3.175781 -7.160156 3.109375 -6.738281 3.109375 -6.3125 C 3.109375 -5.488281 3.207031 -4.757812 3.40625 -4.125 C 3.613281 -3.5 3.894531 -2.96875 4.25 -2.53125 C 4.601562 -2.101562 5.015625 -1.78125 5.484375 -1.5625 C 5.960938 -1.34375 6.484375 -1.234375 7.046875 -1.234375 C 7.378906 -1.234375 7.71875 -1.3125 8.0625 -1.46875 C 8.40625 -1.632812 8.734375 -1.835938 9.046875 -2.078125 C 9.367188 -2.328125 9.675781 -2.585938 9.96875 -2.859375 C 10.257812 -3.140625 10.519531 -3.390625 10.75 -3.609375 Z M 11.1875 -3.109375 "/></g></g><g style="fill:#3f1918;fill-opacity:1;"><g transform="translate(117.13361, 25.75516)"><path style="stroke:none" d="M 9.328125 -1.5625 C 9.160156 -1.289062 8.953125 -1.046875 8.703125 -0.828125 C 8.453125 -0.617188 8.175781 -0.4375 7.875 -0.28125 C 7.582031 -0.132812 7.273438 -0.0195312 6.953125 0.0625 C 6.628906 0.15625 6.3125 0.203125 6 0.203125 C 5.570312 0.203125 5.207031 0.125 4.90625 -0.03125 C 4.601562 -0.1875 4.359375 -0.394531 4.171875 -0.65625 C 3.984375 -0.914062 3.84375 -1.21875 3.75 -1.5625 C 3.65625 -1.90625 3.609375 -2.265625 3.609375 -2.640625 C 3.609375 -3.128906 3.679688 -3.648438 3.828125 -4.203125 C 3.984375 -4.765625 4.1875 -5.316406 4.4375 -5.859375 C 4.6875 -6.410156 4.972656 -6.914062 5.296875 -7.375 C 5.628906 -7.84375 5.976562 -8.234375 6.34375 -8.546875 C 6 -8.328125 5.628906 -8.15625 5.234375 -8.03125 C 4.835938 -7.90625 4.4375 -7.84375 4.03125 -7.84375 C 3.726562 -7.84375 3.46875 -7.863281 3.25 -7.90625 C 3.03125 -7.957031 2.785156 -8.050781 2.515625 -8.1875 L 1.03125 -5.078125 L 0.421875 -5.3125 L 1.96875 -8.484375 C 1.800781 -8.597656 1.625 -8.742188 1.4375 -8.921875 C 1.25 -9.097656 1.113281 -9.273438 1.03125 -9.453125 L 3.03125 -11.6875 C 3.113281 -11.425781 3.226562 -11.164062 3.375 -10.90625 C 3.53125 -10.644531 3.710938 -10.410156 3.921875 -10.203125 C 4.128906 -9.992188 4.359375 -9.820312 4.609375 -9.6875 C 4.859375 -9.550781 5.132812 -9.484375 5.4375 -9.484375 C 5.9375 -9.484375 6.425781 -9.578125 6.90625 -9.765625 C 7.382812 -9.953125 7.832031 -10.179688 8.25 -10.453125 L 8.625 -10.0625 C 8.257812 -9.726562 7.894531 -9.359375 7.53125 -8.953125 C 7.164062 -8.546875 6.832031 -8.113281 6.53125 -7.65625 C 6.238281 -7.195312 6 -6.710938 5.8125 -6.203125 C 5.632812 -5.703125 5.546875 -5.191406 5.546875 -4.671875 C 5.546875 -4.378906 5.585938 -4.046875 5.671875 -3.671875 C 5.753906 -3.304688 5.878906 -2.957031 6.046875 -2.625 C 6.222656 -2.300781 6.4375 -2.023438 6.6875 -1.796875 C 6.945312 -1.578125 7.257812 -1.46875 7.625 -1.46875 C 7.875 -1.46875 8.113281 -1.507812 8.34375 -1.59375 C 8.582031 -1.6875 8.796875 -1.800781 8.984375 -1.9375 Z M 9.328125 -1.5625 "/></g></g><g style="fill:#3f1918;fill-opacity:1;"><g transform="translate(126.969101, 25.75516)"><path style="stroke:none" d="M 4.453125 -18.703125 L 3.703125 -13.46875 L 2.296875 -13.03125 L 1.4375 -17.671875 Z M 6.4375 -1.671875 C 6.21875 -1.203125 5.960938 -0.84375 5.671875 -0.59375 C 5.378906 -0.351562 5.097656 -0.175781 4.828125 -0.0625 C 4.515625 0.0703125 4.195312 0.148438 3.875 0.171875 C 3.445312 0.171875 3.09375 0.101562 2.8125 -0.03125 C 2.539062 -0.164062 2.320312 -0.34375 2.15625 -0.5625 C 2 -0.78125 1.890625 -1.023438 1.828125 -1.296875 C 1.765625 -1.578125 1.734375 -1.863281 1.734375 -2.15625 L 1.734375 -10.1875 L 4.375 -11.09375 L 4.375 -2.078125 C 4.375 -1.847656 4.425781 -1.664062 4.53125 -1.53125 C 4.632812 -1.394531 4.769531 -1.320312 4.9375 -1.3125 C 5.101562 -1.3125 5.285156 -1.375 5.484375 -1.5 C 5.679688 -1.625 5.867188 -1.828125 6.046875 -2.109375 Z M 6.4375 -1.671875 "/></g></g><g style="fill:#3f1918;fill-opacity:1;"><g transform="translate(133.636021, 25.75516)"><path style="stroke:none" d="M 7.015625 0.265625 C 6.679688 0.265625 6.359375 0.21875 6.046875 0.125 C 5.742188 0.03125 5.457031 -0.117188 5.1875 -0.328125 L 6.3125 -1.9375 C 6.488281 -1.6875 6.695312 -1.488281 6.9375 -1.34375 C 7.1875 -1.207031 7.457031 -1.140625 7.75 -1.140625 C 8.0625 -1.140625 8.328125 -1.21875 8.546875 -1.375 C 8.765625 -1.539062 8.945312 -1.75 9.09375 -2 C 9.238281 -2.257812 9.359375 -2.550781 9.453125 -2.875 C 9.554688 -3.195312 9.628906 -3.519531 9.671875 -3.84375 C 9.722656 -4.164062 9.757812 -4.476562 9.78125 -4.78125 C 9.800781 -5.082031 9.8125 -5.335938 9.8125 -5.546875 C 9.8125 -5.953125 9.753906 -6.390625 9.640625 -6.859375 C 9.523438 -7.328125 9.351562 -7.765625 9.125 -8.171875 C 8.90625 -8.578125 8.617188 -8.914062 8.265625 -9.1875 C 7.910156 -9.46875 7.492188 -9.609375 7.015625 -9.609375 C 6.679688 -9.609375 6.394531 -9.523438 6.15625 -9.359375 C 5.925781 -9.191406 5.726562 -8.96875 5.5625 -8.6875 C 5.40625 -8.414062 5.28125 -8.101562 5.1875 -7.75 C 5.101562 -7.40625 5.039062 -7.054688 5 -6.703125 C 4.957031 -6.359375 4.929688 -6.019531 4.921875 -5.6875 C 4.910156 -5.363281 4.90625 -5.082031 4.90625 -4.84375 L 4.90625 6.171875 L 2.296875 7.078125 L 2.296875 -9.015625 C 2.296875 -9.203125 2.242188 -9.375 2.140625 -9.53125 C 2.046875 -9.695312 1.898438 -9.78125 1.703125 -9.78125 C 1.460938 -9.78125 1.242188 -9.691406 1.046875 -9.515625 C 0.859375 -9.335938 0.707031 -9.160156 0.59375 -8.984375 L 0.203125 -9.421875 C 0.316406 -9.660156 0.460938 -9.890625 0.640625 -10.109375 C 0.816406 -10.335938 1.015625 -10.535156 1.234375 -10.703125 C 1.460938 -10.878906 1.707031 -11.015625 1.96875 -11.109375 C 2.226562 -11.210938 2.503906 -11.265625 2.796875 -11.265625 C 3.203125 -11.265625 3.539062 -11.203125 3.8125 -11.078125 C 4.082031 -10.960938 4.296875 -10.796875 4.453125 -10.578125 C 4.617188 -10.359375 4.734375 -10.09375 4.796875 -9.78125 C 4.867188 -9.476562 4.90625 -9.140625 4.90625 -8.765625 C 5.050781 -9.066406 5.226562 -9.367188 5.4375 -9.671875 C 5.644531 -9.972656 5.875 -10.238281 6.125 -10.46875 C 6.382812 -10.707031 6.671875 -10.898438 6.984375 -11.046875 C 7.296875 -11.191406 7.640625 -11.265625 8.015625 -11.265625 C 8.671875 -11.265625 9.253906 -11.117188 9.765625 -10.828125 C 10.273438 -10.535156 10.703125 -10.148438 11.046875 -9.671875 C 11.398438 -9.203125 11.664062 -8.671875 11.84375 -8.078125 C 12.03125 -7.492188 12.125 -6.894531 12.125 -6.28125 C 12.125 -5.519531 12.015625 -4.753906 11.796875 -3.984375 C 11.585938 -3.210938 11.269531 -2.507812 10.84375 -1.875 C 10.414062 -1.25 9.878906 -0.734375 9.234375 -0.328125 C 8.597656 0.0664062 7.859375 0.265625 7.015625 0.265625 Z M 7.015625 0.265625 "/></g></g><g style="fill:#3f1918;fill-opacity:1;"><g transform="translate(146.66877, 25.75516)"><path style="stroke:none" d="M 6.75 -1.671875 C 6.53125 -1.203125 6.273438 -0.84375 5.984375 -0.59375 C 5.703125 -0.351562 5.421875 -0.175781 5.140625 -0.0625 C 4.828125 0.0703125 4.503906 0.148438 4.171875 0.171875 C 3.742188 0.171875 3.390625 0.101562 3.109375 -0.03125 C 2.835938 -0.164062 2.625 -0.34375 2.46875 -0.5625 C 2.3125 -0.78125 2.203125 -1.023438 2.140625 -1.296875 C 2.078125 -1.578125 2.046875 -1.863281 2.046875 -2.15625 L 2.046875 -9.65625 L 0.53125 -9.65625 L 1.140625 -11.09375 L 2.046875 -11.09375 L 2.046875 -16.171875 L 4.671875 -17.09375 L 4.671875 -11.09375 L 7.390625 -11.09375 L 6.8125 -9.65625 L 4.671875 -9.65625 L 4.671875 -2.078125 C 4.671875 -1.847656 4.722656 -1.664062 4.828125 -1.53125 C 4.929688 -1.394531 5.0625 -1.320312 5.21875 -1.3125 C 5.382812 -1.3125 5.566406 -1.375 5.765625 -1.5 C 5.972656 -1.625 6.171875 -1.828125 6.359375 -2.109375 Z M 6.75 -1.671875 "/></g></g><g style="fill:#3f1918;fill-opacity:1;"><g transform="translate(154.367986, 25.75516)"><path style="stroke:none" d="M 13.03125 -1.671875 C 12.8125 -1.203125 12.550781 -0.84375 12.25 -0.59375 C 11.957031 -0.351562 11.675781 -0.175781 11.40625 -0.0625 C 11.09375 0.0703125 10.773438 0.148438 10.453125 0.171875 C 10.023438 0.171875 9.671875 0.101562 9.390625 -0.03125 C 9.117188 -0.164062 8.898438 -0.34375 8.734375 -0.5625 C 8.578125 -0.78125 8.46875 -1.023438 8.40625 -1.296875 C 8.34375 -1.578125 8.3125 -1.863281 8.3125 -2.15625 L 8.3125 -6.71875 C 8.238281 -6.375 8.140625 -5.960938 8.015625 -5.484375 C 7.898438 -5.015625 7.753906 -4.519531 7.578125 -4 C 7.410156 -3.476562 7.210938 -2.957031 6.984375 -2.4375 C 6.753906 -1.925781 6.488281 -1.46875 6.1875 -1.0625 C 5.882812 -0.664062 5.546875 -0.34375 5.171875 -0.09375 C 4.796875 0.15625 4.375 0.28125 3.90625 0.28125 C 3.507812 0.28125 3.195312 0.207031 2.96875 0.0625 C 2.75 -0.0820312 2.582031 -0.289062 2.46875 -0.5625 C 2.363281 -0.832031 2.296875 -1.15625 2.265625 -1.53125 C 2.242188 -1.914062 2.234375 -2.335938 2.234375 -2.796875 L 2.234375 -9.015625 C 2.234375 -9.242188 2.179688 -9.425781 2.078125 -9.5625 C 1.972656 -9.695312 1.835938 -9.765625 1.671875 -9.765625 C 1.503906 -9.773438 1.316406 -9.71875 1.109375 -9.59375 C 0.910156 -9.46875 0.71875 -9.265625 0.53125 -8.984375 L 0.140625 -9.421875 C 0.359375 -9.878906 0.609375 -10.234375 0.890625 -10.484375 C 1.179688 -10.734375 1.46875 -10.914062 1.75 -11.03125 C 2.0625 -11.164062 2.382812 -11.242188 2.71875 -11.265625 C 3.15625 -11.265625 3.507812 -11.195312 3.78125 -11.0625 C 4.050781 -10.925781 4.265625 -10.75 4.421875 -10.53125 C 4.578125 -10.320312 4.6875 -10.078125 4.75 -9.796875 C 4.8125 -9.523438 4.84375 -9.242188 4.84375 -8.953125 L 4.84375 -3.03125 C 4.84375 -2.65625 4.910156 -2.410156 5.046875 -2.296875 C 5.179688 -2.179688 5.351562 -2.195312 5.5625 -2.34375 C 5.78125 -2.488281 6.019531 -2.757812 6.28125 -3.15625 C 6.550781 -3.550781 6.816406 -4.078125 7.078125 -4.734375 C 7.253906 -5.347656 7.421875 -5.988281 7.578125 -6.65625 C 7.710938 -7.21875 7.847656 -7.835938 7.984375 -8.515625 C 8.128906 -9.191406 8.238281 -9.847656 8.3125 -10.484375 L 10.953125 -11.390625 L 10.953125 -2.078125 C 10.953125 -1.847656 11.003906 -1.664062 11.109375 -1.53125 C 11.210938 -1.394531 11.34375 -1.320312 11.5 -1.3125 C 11.664062 -1.3125 11.847656 -1.375 12.046875 -1.5 C 12.242188 -1.625 12.4375 -1.828125 12.625 -2.109375 Z M 13.03125 -1.671875 "/></g></g><g style="fill:#3f1918;fill-opacity:1;"><g transform="translate(167.615791, 25.75516)"><path style="stroke:none" d="M 9.328125 -1.5625 C 9.160156 -1.289062 8.953125 -1.046875 8.703125 -0.828125 C 8.453125 -0.617188 8.175781 -0.4375 7.875 -0.28125 C 7.582031 -0.132812 7.273438 -0.0195312 6.953125 0.0625 C 6.628906 0.15625 6.3125 0.203125 6 0.203125 C 5.570312 0.203125 5.207031 0.125 4.90625 -0.03125 C 4.601562 -0.1875 4.359375 -0.394531 4.171875 -0.65625 C 3.984375 -0.914062 3.84375 -1.21875 3.75 -1.5625 C 3.65625 -1.90625 3.609375 -2.265625 3.609375 -2.640625 C 3.609375 -3.128906 3.679688 -3.648438 3.828125 -4.203125 C 3.984375 -4.765625 4.1875 -5.316406 4.4375 -5.859375 C 4.6875 -6.410156 4.972656 -6.914062 5.296875 -7.375 C 5.628906 -7.84375 5.976562 -8.234375 6.34375 -8.546875 C 6 -8.328125 5.628906 -8.15625 5.234375 -8.03125 C 4.835938 -7.90625 4.4375 -7.84375 4.03125 -7.84375 C 3.726562 -7.84375 3.46875 -7.863281 3.25 -7.90625 C 3.03125 -7.957031 2.785156 -8.050781 2.515625 -8.1875 L 1.03125 -5.078125 L 0.421875 -5.3125 L 1.96875 -8.484375 C 1.800781 -8.597656 1.625 -8.742188 1.4375 -8.921875 C 1.25 -9.097656 1.113281 -9.273438 1.03125 -9.453125 L 3.03125 -11.6875 C 3.113281 -11.425781 3.226562 -11.164062 3.375 -10.90625 C 3.53125 -10.644531 3.710938 -10.410156 3.921875 -10.203125 C 4.128906 -9.992188 4.359375 -9.820312 4.609375 -9.6875 C 4.859375 -9.550781 5.132812 -9.484375 5.4375 -9.484375 C 5.9375 -9.484375 6.425781 -9.578125 6.90625 -9.765625 C 7.382812 -9.953125 7.832031 -10.179688 8.25 -10.453125 L 8.625 -10.0625 C 8.257812 -9.726562 7.894531 -9.359375 7.53125 -8.953125 C 7.164062 -8.546875 6.832031 -8.113281 6.53125 -7.65625 C 6.238281 -7.195312 6 -6.710938 5.8125 -6.203125 C 5.632812 -5.703125 5.546875 -5.191406 5.546875 -4.671875 C 5.546875 -4.378906 5.585938 -4.046875 5.671875 -3.671875 C 5.753906 -3.304688 5.878906 -2.957031 6.046875 -2.625 C 6.222656 -2.300781 6.4375 -2.023438 6.6875 -1.796875 C 6.945312 -1.578125 7.257812 -1.46875 7.625 -1.46875 C 7.875 -1.46875 8.113281 -1.507812 8.34375 -1.59375 C 8.582031 -1.6875 8.796875 -1.800781 8.984375 -1.9375 Z M 9.328125 -1.5625 "/></g></g><g style="fill:#3f1918;fill-opacity:1;"><g transform="translate(177.451272, 25.75516)"><path style="stroke:none" d="M 4.453125 -18.703125 L 3.703125 -13.46875 L 2.296875 -13.03125 L 1.4375 -17.671875 Z M 6.4375 -1.671875 C 6.21875 -1.203125 5.960938 -0.84375 5.671875 -0.59375 C 5.378906 -0.351562 5.097656 -0.175781 4.828125 -0.0625 C 4.515625 0.0703125 4.195312 0.148438 3.875 0.171875 C 3.445312 0.171875 3.09375 0.101562 2.8125 -0.03125 C 2.539062 -0.164062 2.320312 -0.34375 2.15625 -0.5625 C 2 -0.78125 1.890625 -1.023438 1.828125 -1.296875 C 1.765625 -1.578125 1.734375 -1.863281 1.734375 -2.15625 L 1.734375 -10.1875 L 4.375 -11.09375 L 4.375 -2.078125 C 4.375 -1.847656 4.425781 -1.664062 4.53125 -1.53125 C 4.632812 -1.394531 4.769531 -1.320312 4.9375 -1.3125 C 5.101562 -1.3125 5.285156 -1.375 5.484375 -1.5 C 5.679688 -1.625 5.867188 -1.828125 6.046875 -2.109375 Z M 6.4375 -1.671875 "/></g></g><g style="fill:#3f1918;fill-opacity:1;"><g transform="translate(184.118192, 25.75516)"><path style="stroke:none" d=""/></g></g><g style="fill:#3f1918;fill-opacity:1;"><g transform="translate(190.311971, 25.75516)"><path style="stroke:none" d="M 7.875 -3.953125 C 7.875 -3.359375 7.757812 -2.800781 7.53125 -2.28125 C 7.3125 -1.769531 7.015625 -1.320312 6.640625 -0.9375 C 6.265625 -0.5625 5.816406 -0.265625 5.296875 -0.046875 C 4.773438 0.171875 4.210938 0.28125 3.609375 0.28125 C 3.347656 0.28125 3.066406 0.253906 2.765625 0.203125 C 2.472656 0.160156 2.175781 0.09375 1.875 0 C 1.582031 -0.09375 1.300781 -0.210938 1.03125 -0.359375 C 0.769531 -0.503906 0.554688 -0.675781 0.390625 -0.875 L 2.078125 -3.078125 C 2.191406 -2.898438 2.332031 -2.703125 2.5 -2.484375 C 2.664062 -2.273438 2.851562 -2.078125 3.0625 -1.890625 C 3.269531 -1.710938 3.488281 -1.5625 3.71875 -1.4375 C 3.957031 -1.320312 4.195312 -1.265625 4.4375 -1.265625 C 4.707031 -1.265625 4.960938 -1.3125 5.203125 -1.40625 C 5.453125 -1.5 5.664062 -1.632812 5.84375 -1.8125 C 6.03125 -1.988281 6.175781 -2.195312 6.28125 -2.4375 C 6.382812 -2.675781 6.4375 -2.9375 6.4375 -3.21875 C 6.4375 -3.601562 6.300781 -3.957031 6.03125 -4.28125 C 5.769531 -4.601562 5.460938 -4.910156 5.109375 -5.203125 C 4.753906 -5.503906 4.378906 -5.816406 3.984375 -6.140625 C 3.597656 -6.460938 3.285156 -6.816406 3.046875 -7.203125 L 1.5625 -5.015625 L 1 -5.4375 L 2.71875 -7.8125 C 2.582031 -8.09375 2.476562 -8.382812 2.40625 -8.6875 C 2.332031 -8.988281 2.296875 -9.296875 2.296875 -9.609375 C 2.296875 -9.859375 2.335938 -10.128906 2.421875 -10.421875 C 2.503906 -10.710938 2.628906 -10.972656 2.796875 -11.203125 C 2.960938 -11.441406 3.160156 -11.640625 3.390625 -11.796875 C 3.617188 -11.960938 3.890625 -12.046875 4.203125 -12.046875 C 4.492188 -12.046875 4.742188 -11.953125 4.953125 -11.765625 C 5.160156 -11.585938 5.265625 -11.335938 5.265625 -11.015625 C 5.265625 -10.835938 5.234375 -10.660156 5.171875 -10.484375 C 5.117188 -10.316406 5.046875 -10.144531 4.953125 -9.96875 C 4.867188 -9.800781 4.773438 -9.640625 4.671875 -9.484375 C 4.566406 -9.328125 4.46875 -9.179688 4.375 -9.046875 C 4.601562 -8.722656 4.847656 -8.441406 5.109375 -8.203125 C 5.378906 -7.960938 5.644531 -7.734375 5.90625 -7.515625 C 6.164062 -7.304688 6.414062 -7.097656 6.65625 -6.890625 C 6.894531 -6.679688 7.101562 -6.441406 7.28125 -6.171875 C 7.457031 -5.910156 7.597656 -5.601562 7.703125 -5.25 C 7.816406 -4.894531 7.875 -4.460938 7.875 -3.953125 Z M 4.609375 -10.75 C 4.609375 -10.882812 4.5625 -10.984375 4.46875 -11.046875 C 4.382812 -11.117188 4.285156 -11.15625 4.171875 -11.15625 C 4.003906 -11.15625 3.890625 -11.097656 3.828125 -10.984375 C 3.765625 -10.878906 3.734375 -10.757812 3.734375 -10.625 C 3.734375 -10.4375 3.757812 -10.25 3.8125 -10.0625 C 3.875 -9.882812 3.957031 -9.710938 4.0625 -9.546875 C 4.09375 -9.609375 4.140625 -9.691406 4.203125 -9.796875 C 4.265625 -9.910156 4.328125 -10.023438 4.390625 -10.140625 C 4.453125 -10.265625 4.503906 -10.378906 4.546875 -10.484375 C 4.585938 -10.597656 4.609375 -10.6875 4.609375 -10.75 Z M 5.484375 2.390625 C 5.484375 2.648438 5.4375 2.894531 5.34375 3.125 C 5.257812 3.363281 5.140625 3.582031 4.984375 3.78125 C 4.835938 3.976562 4.664062 4.160156 4.46875 4.328125 C 4.269531 4.503906 4.066406 4.65625 3.859375 4.78125 L 3.484375 4.46875 C 3.609375 4.351562 3.722656 4.207031 3.828125 4.03125 C 3.929688 3.851562 4.003906 3.6875 4.046875 3.53125 C 3.785156 3.445312 3.570312 3.300781 3.40625 3.09375 C 3.238281 2.894531 3.15625 2.660156 3.15625 2.390625 C 3.15625 2.078125 3.265625 1.800781 3.484375 1.5625 C 3.710938 1.332031 3.984375 1.21875 4.296875 1.21875 C 4.628906 1.21875 4.910156 1.332031 5.140625 1.5625 C 5.367188 1.800781 5.484375 2.078125 5.484375 2.390625 Z M 5.484375 2.390625 "/></g></g><g style="fill:#3f1918;fill-opacity:1;"><g transform="translate(198.943127, 25.75516)"><path style="stroke:none" d="M 4.453125 -18.703125 L 3.703125 -13.46875 L 2.296875 -13.03125 L 1.4375 -17.671875 Z M 6.4375 -1.671875 C 6.21875 -1.203125 5.960938 -0.84375 5.671875 -0.59375 C 5.378906 -0.351562 5.097656 -0.175781 4.828125 -0.0625 C 4.515625 0.0703125 4.195312 0.148438 3.875 0.171875 C 3.445312 0.171875 3.09375 0.101562 2.8125 -0.03125 C 2.539062 -0.164062 2.320312 -0.34375 2.15625 -0.5625 C 2 -0.78125 1.890625 -1.023438 1.828125 -1.296875 C 1.765625 -1.578125 1.734375 -1.863281 1.734375 -2.15625 L 1.734375 -10.1875 L 4.375 -11.09375 L 4.375 -2.078125 C 4.375 -1.847656 4.425781 -1.664062 4.53125 -1.53125 C 4.632812 -1.394531 4.769531 -1.320312 4.9375 -1.3125 C 5.101562 -1.3125 5.285156 -1.375 5.484375 -1.5 C 5.679688 -1.625 5.867188 -1.828125 6.046875 -2.109375 Z M 6.4375 -1.671875 "/></g></g><g style="fill:#3f1918;fill-opacity:1;"><g transform="translate(205.610048, 25.75516)"><path style="stroke:none" d=""/></g></g><g style="fill:#3f1918;fill-opacity:1;"><g transform="translate(211.803826, 25.75516)"><path style="stroke:none" d="M 15.265625 -17.671875 L 12.859375 -14.765625 C 12.648438 -15.398438 12.378906 -16.003906 12.046875 -16.578125 C 11.710938 -17.148438 11.3125 -17.648438 10.84375 -18.078125 C 10.382812 -18.503906 9.863281 -18.847656 9.28125 -19.109375 C 8.707031 -19.367188 8.0625 -19.5 7.34375 -19.5 C 6.820312 -19.5 6.34375 -19.40625 5.90625 -19.21875 C 5.46875 -19.03125 5.082031 -18.769531 4.75 -18.4375 C 4.414062 -18.113281 4.15625 -17.722656 3.96875 -17.265625 C 3.789062 -16.816406 3.703125 -16.335938 3.703125 -15.828125 C 3.703125 -15.296875 3.800781 -14.796875 4 -14.328125 C 4.195312 -13.859375 4.460938 -13.429688 4.796875 -13.046875 C 5.128906 -12.671875 5.515625 -12.34375 5.953125 -12.0625 C 6.390625 -11.789062 6.84375 -11.578125 7.3125 -11.421875 C 7.78125 -11.265625 8.269531 -11.082031 8.78125 -10.875 C 9.300781 -10.675781 9.804688 -10.441406 10.296875 -10.171875 C 10.796875 -9.910156 11.269531 -9.613281 11.71875 -9.28125 C 12.175781 -8.945312 12.578125 -8.578125 12.921875 -8.171875 C 13.265625 -7.765625 13.535156 -7.304688 13.734375 -6.796875 C 13.929688 -6.296875 14.03125 -5.75 14.03125 -5.15625 C 14.03125 -4.300781 13.84375 -3.53125 13.46875 -2.84375 C 13.09375 -2.164062 12.597656 -1.59375 11.984375 -1.125 C 11.367188 -0.65625 10.664062 -0.296875 9.875 -0.046875 C 9.09375 0.203125 8.296875 0.328125 7.484375 0.328125 C 6.929688 0.328125 6.367188 0.242188 5.796875 0.078125 C 5.234375 -0.078125 4.691406 -0.296875 4.171875 -0.578125 C 3.648438 -0.859375 3.160156 -1.1875 2.703125 -1.5625 C 2.242188 -1.9375 1.847656 -2.335938 1.515625 -2.765625 L 3.84375 -5.4375 C 3.988281 -4.976562 4.238281 -4.488281 4.59375 -3.96875 C 4.945312 -3.457031 5.363281 -2.976562 5.84375 -2.53125 C 6.320312 -2.09375 6.835938 -1.726562 7.390625 -1.4375 C 7.941406 -1.144531 8.472656 -1 8.984375 -1 C 9.285156 -1 9.59375 -1.078125 9.90625 -1.234375 C 10.21875 -1.390625 10.503906 -1.585938 10.765625 -1.828125 C 11.035156 -2.066406 11.253906 -2.328125 11.421875 -2.609375 C 11.597656 -2.898438 11.6875 -3.1875 11.6875 -3.46875 C 11.6875 -3.882812 11.597656 -4.28125 11.421875 -4.65625 C 11.253906 -5.039062 11.03125 -5.398438 10.75 -5.734375 C 10.46875 -6.066406 10.140625 -6.375 9.765625 -6.65625 C 9.398438 -6.9375 9.019531 -7.1875 8.625 -7.40625 C 8.226562 -7.632812 7.832031 -7.832031 7.4375 -8 C 7.039062 -8.164062 6.675781 -8.300781 6.34375 -8.40625 C 5.675781 -8.601562 5.03125 -8.882812 4.40625 -9.25 C 3.78125 -9.625 3.222656 -10.070312 2.734375 -10.59375 C 2.242188 -11.125 1.851562 -11.71875 1.5625 -12.375 C 1.269531 -13.03125 1.125 -13.734375 1.125 -14.484375 C 1.125 -15.117188 1.222656 -15.722656 1.421875 -16.296875 C 1.617188 -16.867188 1.894531 -17.398438 2.25 -17.890625 C 2.601562 -18.378906 3.019531 -18.820312 3.5 -19.21875 C 3.976562 -19.613281 4.492188 -19.945312 5.046875 -20.21875 C 5.597656 -20.488281 6.175781 -20.695312 6.78125 -20.84375 C 7.382812 -21 7.988281 -21.078125 8.59375 -21.078125 C 9.9375 -21.078125 11.179688 -20.773438 12.328125 -20.171875 C 13.472656 -19.578125 14.453125 -18.742188 15.265625 -17.671875 Z M 15.265625 -17.671875 "/></g></g><g style="fill:#3f1918;fill-opacity:1;"><g transform="translate(227.661058, 25.75516)"><path style="stroke:none" d="M 10.34375 -19.25 L 8.546875 -18.09375 C 8.378906 -18.53125 8.128906 -18.90625 7.796875 -19.21875 C 7.472656 -19.539062 7.054688 -19.703125 6.546875 -19.703125 C 6.140625 -19.703125 5.8125 -19.609375 5.5625 -19.421875 C 5.3125 -19.234375 5.117188 -18.992188 4.984375 -18.703125 C 4.859375 -18.410156 4.773438 -18.085938 4.734375 -17.734375 C 4.691406 -17.390625 4.671875 -17.054688 4.671875 -16.734375 L 4.671875 -11.09375 L 8.421875 -11.09375 L 7.8125 -9.65625 L 4.671875 -9.65625 L 4.671875 2.90625 L 2.015625 4.03125 L 2.015625 -9.65625 L 0.59375 -9.65625 L 1.203125 -11.09375 L 2.015625 -11.09375 L 2.015625 -14.15625 C 2.015625 -14.9375 2.097656 -15.71875 2.265625 -16.5 C 2.441406 -17.289062 2.726562 -18 3.125 -18.625 C 3.53125 -19.257812 4.054688 -19.773438 4.703125 -20.171875 C 5.359375 -20.566406 6.160156 -20.765625 7.109375 -20.765625 C 7.398438 -20.765625 7.691406 -20.726562 7.984375 -20.65625 C 8.285156 -20.59375 8.578125 -20.492188 8.859375 -20.359375 C 9.148438 -20.234375 9.421875 -20.078125 9.671875 -19.890625 C 9.929688 -19.703125 10.15625 -19.488281 10.34375 -19.25 Z M 10.34375 -19.25 "/></g></g><g style="fill:#3f1918;fill-opacity:1;"><g transform="translate(235.876402, 25.75516)"><path style="stroke:none" d="M 4.453125 -18.703125 L 3.703125 -13.46875 L 2.296875 -13.03125 L 1.4375 -17.671875 Z M 6.4375 -1.671875 C 6.21875 -1.203125 5.960938 -0.84375 5.671875 -0.59375 C 5.378906 -0.351562 5.097656 -0.175781 4.828125 -0.0625 C 4.515625 0.0703125 4.195312 0.148438 3.875 0.171875 C 3.445312 0.171875 3.09375 0.101562 2.8125 -0.03125 C 2.539062 -0.164062 2.320312 -0.34375 2.15625 -0.5625 C 2 -0.78125 1.890625 -1.023438 1.828125 -1.296875 C 1.765625 -1.578125 1.734375 -1.863281 1.734375 -2.15625 L 1.734375 -10.1875 L 4.375 -11.09375 L 4.375 -2.078125 C 4.375 -1.847656 4.425781 -1.664062 4.53125 -1.53125 C 4.632812 -1.394531 4.769531 -1.320312 4.9375 -1.3125 C 5.101562 -1.3125 5.285156 -1.375 5.484375 -1.5 C 5.679688 -1.625 5.867188 -1.828125 6.046875 -2.109375 Z M 6.4375 -1.671875 "/></g></g><g style="fill:#3f1918;fill-opacity:1;"><g transform="translate(242.543322, 25.75516)"><path style="stroke:none" d="M 13.390625 -1.671875 C 13.273438 -1.421875 13.125 -1.1875 12.9375 -0.96875 C 12.757812 -0.75 12.554688 -0.550781 12.328125 -0.375 C 12.109375 -0.207031 11.867188 -0.078125 11.609375 0.015625 C 11.347656 0.117188 11.082031 0.171875 10.8125 0.171875 C 10.050781 0.171875 9.5 -0.0351562 9.15625 -0.453125 C 8.820312 -0.867188 8.65625 -1.4375 8.65625 -2.15625 L 8.65625 -7.984375 C 8.65625 -8.046875 8.648438 -8.125 8.640625 -8.21875 C 8.640625 -8.3125 8.625 -8.394531 8.59375 -8.46875 C 8.570312 -8.550781 8.535156 -8.617188 8.484375 -8.671875 C 8.441406 -8.734375 8.375 -8.765625 8.28125 -8.765625 C 8.019531 -8.765625 7.75 -8.601562 7.46875 -8.28125 C 7.195312 -7.957031 6.9375 -7.535156 6.6875 -7.015625 C 6.4375 -6.503906 6.203125 -5.925781 5.984375 -5.28125 C 5.765625 -4.644531 5.570312 -4.015625 5.40625 -3.390625 C 5.25 -2.765625 5.125 -2.175781 5.03125 -1.625 C 4.945312 -1.082031 4.90625 -0.648438 4.90625 -0.328125 L 2.296875 0.59375 L 2.296875 -9.046875 C 2.296875 -9.234375 2.242188 -9.40625 2.140625 -9.5625 C 2.046875 -9.726562 1.898438 -9.8125 1.703125 -9.8125 C 1.460938 -9.8125 1.242188 -9.722656 1.046875 -9.546875 C 0.859375 -9.367188 0.707031 -9.191406 0.59375 -9.015625 L 0.203125 -9.453125 C 0.316406 -9.691406 0.460938 -9.921875 0.640625 -10.140625 C 0.816406 -10.367188 1.015625 -10.566406 1.234375 -10.734375 C 1.460938 -10.910156 1.707031 -11.046875 1.96875 -11.140625 C 2.226562 -11.242188 2.503906 -11.296875 2.796875 -11.296875 C 3.535156 -11.296875 4.070312 -11.085938 4.40625 -10.671875 C 4.738281 -10.253906 4.90625 -9.691406 4.90625 -8.984375 L 4.90625 -4.3125 C 4.988281 -4.707031 5.101562 -5.15625 5.25 -5.65625 C 5.394531 -6.15625 5.570312 -6.660156 5.78125 -7.171875 C 6 -7.691406 6.238281 -8.195312 6.5 -8.6875 C 6.757812 -9.1875 7.046875 -9.628906 7.359375 -10.015625 C 7.679688 -10.398438 8.023438 -10.707031 8.390625 -10.9375 C 8.765625 -11.175781 9.171875 -11.296875 9.609375 -11.296875 C 10.054688 -11.296875 10.394531 -11.195312 10.625 -11 C 10.851562 -10.800781 11.015625 -10.550781 11.109375 -10.25 C 11.210938 -9.957031 11.269531 -9.628906 11.28125 -9.265625 C 11.289062 -8.898438 11.296875 -8.550781 11.296875 -8.21875 L 11.296875 -2.078125 C 11.296875 -1.890625 11.34375 -1.710938 11.4375 -1.546875 C 11.53125 -1.390625 11.679688 -1.3125 11.890625 -1.3125 C 12.109375 -1.3125 12.3125 -1.398438 12.5 -1.578125 C 12.695312 -1.753906 12.851562 -1.929688 12.96875 -2.109375 Z M 13.390625 -1.671875 "/></g></g><g style="fill:#3f1918;fill-opacity:1;"><g transform="translate(256.106561, 25.75516)"><path style="stroke:none" d="M 6.75 -1.671875 C 6.53125 -1.203125 6.273438 -0.84375 5.984375 -0.59375 C 5.703125 -0.351562 5.421875 -0.175781 5.140625 -0.0625 C 4.828125 0.0703125 4.503906 0.148438 4.171875 0.171875 C 3.742188 0.171875 3.390625 0.101562 3.109375 -0.03125 C 2.835938 -0.164062 2.625 -0.34375 2.46875 -0.5625 C 2.3125 -0.78125 2.203125 -1.023438 2.140625 -1.296875 C 2.078125 -1.578125 2.046875 -1.863281 2.046875 -2.15625 L 2.046875 -9.65625 L 0.53125 -9.65625 L 1.140625 -11.09375 L 2.046875 -11.09375 L 2.046875 -16.171875 L 4.671875 -17.09375 L 4.671875 -11.09375 L 7.390625 -11.09375 L 6.8125 -9.65625 L 4.671875 -9.65625 L 4.671875 -2.078125 C 4.671875 -1.847656 4.722656 -1.664062 4.828125 -1.53125 C 4.929688 -1.394531 5.0625 -1.320312 5.21875 -1.3125 C 5.382812 -1.3125 5.566406 -1.375 5.765625 -1.5 C 5.972656 -1.625 6.171875 -1.828125 6.359375 -2.109375 Z M 6.75 -1.671875 "/></g></g><g style="fill:#3f1918;fill-opacity:1;"><g transform="translate(263.805778, 25.75516)"><path style="stroke:none" d="M 3.375 2.390625 C 3.375 2.648438 3.328125 2.894531 3.234375 3.125 C 3.148438 3.363281 3.03125 3.582031 2.875 3.78125 C 2.726562 3.976562 2.554688 4.160156 2.359375 4.328125 C 2.160156 4.503906 1.957031 4.65625 1.75 4.78125 L 1.375 4.46875 C 1.5 4.351562 1.613281 4.207031 1.71875 4.03125 C 1.820312 3.851562 1.894531 3.6875 1.9375 3.53125 C 1.675781 3.445312 1.460938 3.300781 1.296875 3.09375 C 1.128906 2.894531 1.046875 2.660156 1.046875 2.390625 C 1.046875 2.078125 1.15625 1.800781 1.375 1.5625 C 1.601562 1.332031 1.875 1.21875 2.1875 1.21875 C 2.519531 1.21875 2.800781 1.332031 3.03125 1.5625 C 3.257812 1.800781 3.375 2.078125 3.375 2.390625 Z M 3.375 2.390625 "/></g></g><g style="fill:#3f1918;fill-opacity:1;"><g transform="translate(263.805778, 25.75516)"><path style="stroke:none" d="M 4.453125 -18.703125 L 3.703125 -13.46875 L 2.296875 -13.03125 L 1.4375 -17.671875 Z M 6.4375 -1.671875 C 6.21875 -1.203125 5.960938 -0.84375 5.671875 -0.59375 C 5.378906 -0.351562 5.097656 -0.175781 4.828125 -0.0625 C 4.515625 0.0703125 4.195312 0.148438 3.875 0.171875 C 3.445312 0.171875 3.09375 0.101562 2.8125 -0.03125 C 2.539062 -0.164062 2.320312 -0.34375 2.15625 -0.5625 C 2 -0.78125 1.890625 -1.023438 1.828125 -1.296875 C 1.765625 -1.578125 1.734375 -1.863281 1.734375 -2.15625 L 1.734375 -10.1875 L 4.375 -11.09375 L 4.375 -2.078125 C 4.375 -1.847656 4.425781 -1.664062 4.53125 -1.53125 C 4.632812 -1.394531 4.769531 -1.320312 4.9375 -1.3125 C 5.101562 -1.3125 5.285156 -1.375 5.484375 -1.5 C 5.679688 -1.625 5.867188 -1.828125 6.046875 -2.109375 Z M 6.4375 -1.671875 "/></g></g><g style="fill:#3f1918;fill-opacity:1;"><g transform="translate(270.472698, 25.75516)"><path style="stroke:none" d="M 4.453125 -18.703125 L 3.703125 -13.46875 L 2.296875 -13.03125 L 1.4375 -17.671875 Z M 6.4375 -1.671875 C 6.21875 -1.203125 5.960938 -0.84375 5.671875 -0.59375 C 5.378906 -0.351562 5.097656 -0.175781 4.828125 -0.0625 C 4.515625 0.0703125 4.195312 0.148438 3.875 0.171875 C 3.445312 0.171875 3.09375 0.101562 2.8125 -0.03125 C 2.539062 -0.164062 2.320312 -0.34375 2.15625 -0.5625 C 2 -0.78125 1.890625 -1.023438 1.828125 -1.296875 C 1.765625 -1.578125 1.734375 -1.863281 1.734375 -2.15625 L 1.734375 -10.1875 L 4.375 -11.09375 L 4.375 -2.078125 C 4.375 -1.847656 4.425781 -1.664062 4.53125 -1.53125 C 4.632812 -1.394531 4.769531 -1.320312 4.9375 -1.3125 C 5.101562 -1.3125 5.285156 -1.375 5.484375 -1.5 C 5.679688 -1.625 5.867188 -1.828125 6.046875 -2.109375 Z M 6.4375 -1.671875 "/></g></g><g style="fill:#3f1918;fill-opacity:1;"><g transform="translate(277.139618, 25.75516)"><path style="stroke:none" d=""/></g></g><g style="fill:#3f1918;fill-opacity:1;"><g transform="translate(283.333397, 25.75516)"><path style="stroke:none" d="M 17.40625 -14.875 C 17.40625 -14.050781 17.25 -13.257812 16.9375 -12.5 C 16.625 -11.75 16.203125 -11.046875 15.671875 -10.390625 C 15.140625 -9.734375 14.523438 -9.132812 13.828125 -8.59375 C 13.128906 -8.0625 12.390625 -7.601562 11.609375 -7.21875 C 10.828125 -6.84375 10.03125 -6.546875 9.21875 -6.328125 C 8.40625 -6.117188 7.617188 -6.015625 6.859375 -6.015625 C 6.785156 -6.015625 6.707031 -6.015625 6.625 -6.015625 C 6.550781 -6.015625 6.472656 -6.023438 6.390625 -6.046875 L 6.546875 -6.84375 C 7.171875 -6.945312 7.800781 -7.101562 8.4375 -7.3125 C 9.070312 -7.53125 9.679688 -7.796875 10.265625 -8.109375 C 10.847656 -8.429688 11.390625 -8.804688 11.890625 -9.234375 C 12.398438 -9.660156 12.84375 -10.132812 13.21875 -10.65625 C 13.59375 -11.175781 13.882812 -11.742188 14.09375 -12.359375 C 14.3125 -12.984375 14.421875 -13.644531 14.421875 -14.34375 C 14.421875 -15.03125 14.3125 -15.660156 14.09375 -16.234375 C 13.875 -16.804688 13.566406 -17.300781 13.171875 -17.71875 C 12.773438 -18.132812 12.296875 -18.457031 11.734375 -18.6875 C 11.179688 -18.925781 10.566406 -19.046875 9.890625 -19.046875 C 9.179688 -19.046875 8.457031 -18.960938 7.71875 -18.796875 C 6.976562 -18.640625 6.242188 -18.410156 5.515625 -18.109375 C 4.796875 -17.816406 4.097656 -17.457031 3.421875 -17.03125 C 2.742188 -16.613281 2.125 -16.144531 1.5625 -15.625 L 1.125 -16.109375 C 1.769531 -16.765625 2.507812 -17.375 3.34375 -17.9375 C 4.1875 -18.507812 5.066406 -19.003906 5.984375 -19.421875 C 6.898438 -19.847656 7.828125 -20.1875 8.765625 -20.4375 C 9.703125 -20.6875 10.609375 -20.8125 11.484375 -20.8125 C 12.316406 -20.8125 13.09375 -20.664062 13.8125 -20.375 C 14.53125 -20.082031 15.15625 -19.671875 15.6875 -19.140625 C 16.21875 -18.617188 16.632812 -17.992188 16.9375 -17.265625 C 17.25 -16.546875 17.40625 -15.75 17.40625 -14.875 Z M 5.75 -0.640625 L 2.796875 0.4375 L 2.796875 -15.625 L 5.75 -16.671875 Z M 5.75 -0.640625 "/></g></g><g style="fill:#3f1918;fill-opacity:1;"><g transform="translate(301.212193, 25.75516)"><path style="stroke:none" d="M 12.765625 -1.703125 C 12.648438 -1.453125 12.503906 -1.21875 12.328125 -1 C 12.160156 -0.78125 11.960938 -0.582031 11.734375 -0.40625 C 11.515625 -0.238281 11.273438 -0.101562 11.015625 0 C 10.753906 0.09375 10.476562 0.140625 10.1875 0.140625 C 9.4375 0.140625 8.894531 -0.0664062 8.5625 -0.484375 C 8.238281 -0.898438 8.078125 -1.460938 8.078125 -2.171875 L 8.078125 -2.4375 C 7.898438 -2.113281 7.703125 -1.785156 7.484375 -1.453125 C 7.273438 -1.128906 7.03125 -0.835938 6.75 -0.578125 C 6.476562 -0.328125 6.175781 -0.125 5.84375 0.03125 C 5.507812 0.195312 5.140625 0.28125 4.734375 0.28125 C 4.109375 0.28125 3.554688 0.160156 3.078125 -0.078125 C 2.597656 -0.316406 2.195312 -0.640625 1.875 -1.046875 C 1.550781 -1.453125 1.304688 -1.925781 1.140625 -2.46875 C 0.984375 -3.007812 0.90625 -3.585938 0.90625 -4.203125 C 0.90625 -5.035156 1.050781 -5.863281 1.34375 -6.6875 C 1.632812 -7.507812 2.046875 -8.242188 2.578125 -8.890625 C 3.109375 -9.546875 3.742188 -10.078125 4.484375 -10.484375 C 5.222656 -10.890625 6.046875 -11.09375 6.953125 -11.09375 C 7.316406 -11.09375 7.679688 -11.054688 8.046875 -10.984375 C 8.410156 -10.921875 8.753906 -10.816406 9.078125 -10.671875 C 9.410156 -10.523438 9.710938 -10.332031 9.984375 -10.09375 C 10.253906 -9.851562 10.476562 -9.5625 10.65625 -9.21875 L 8.515625 -8.3125 C 8.398438 -8.5 8.269531 -8.675781 8.125 -8.84375 C 7.976562 -9.007812 7.816406 -9.15625 7.640625 -9.28125 C 7.460938 -9.40625 7.269531 -9.503906 7.0625 -9.578125 C 6.863281 -9.648438 6.65625 -9.6875 6.4375 -9.6875 C 5.9375 -9.6875 5.492188 -9.53125 5.109375 -9.21875 C 4.722656 -8.914062 4.394531 -8.539062 4.125 -8.09375 C 3.851562 -7.644531 3.644531 -7.164062 3.5 -6.65625 C 3.351562 -6.15625 3.28125 -5.703125 3.28125 -5.296875 C 3.28125 -4.929688 3.316406 -4.519531 3.390625 -4.0625 C 3.460938 -3.613281 3.585938 -3.1875 3.765625 -2.78125 C 3.953125 -2.375 4.191406 -2.03125 4.484375 -1.75 C 4.785156 -1.476562 5.160156 -1.34375 5.609375 -1.34375 C 5.960938 -1.34375 6.265625 -1.421875 6.515625 -1.578125 C 6.773438 -1.742188 6.992188 -1.953125 7.171875 -2.203125 C 7.359375 -2.453125 7.507812 -2.738281 7.625 -3.0625 C 7.75 -3.394531 7.84375 -3.734375 7.90625 -4.078125 C 7.96875 -4.429688 8.007812 -4.773438 8.03125 -5.109375 C 8.0625 -5.453125 8.078125 -5.753906 8.078125 -6.015625 L 8.078125 -7.015625 L 10.6875 -7.921875 L 10.6875 -2.109375 C 10.6875 -1.921875 10.734375 -1.742188 10.828125 -1.578125 C 10.921875 -1.421875 11.066406 -1.34375 11.265625 -1.34375 C 11.503906 -1.34375 11.722656 -1.429688 11.921875 -1.609375 C 12.117188 -1.785156 12.273438 -1.96875 12.390625 -2.15625 Z M 4.5 -17.28125 L 4.921875 -16.96875 C 4.765625 -16.757812 4.65625 -16.523438 4.59375 -16.265625 C 4.53125 -16.015625 4.5 -15.769531 4.5 -15.53125 C 4.5 -15.269531 4.535156 -14.984375 4.609375 -14.671875 C 4.679688 -14.359375 4.796875 -14.066406 4.953125 -13.796875 C 5.109375 -13.535156 5.300781 -13.3125 5.53125 -13.125 C 5.757812 -12.945312 6.023438 -12.859375 6.328125 -12.859375 C 6.734375 -12.859375 7.0625 -12.988281 7.3125 -13.25 C 7.570312 -13.507812 7.703125 -13.847656 7.703125 -14.265625 C 7.703125 -14.617188 7.613281 -14.96875 7.4375 -15.3125 C 7.269531 -15.664062 7.046875 -15.953125 6.765625 -16.171875 L 8.65625 -17.375 C 9.195312 -16.769531 9.46875 -16.046875 9.46875 -15.203125 C 9.46875 -14.722656 9.378906 -14.28125 9.203125 -13.875 C 9.035156 -13.476562 8.800781 -13.132812 8.5 -12.84375 C 8.195312 -12.5625 7.835938 -12.34375 7.421875 -12.1875 C 7.003906 -12.039062 6.554688 -11.96875 6.078125 -11.96875 C 5.691406 -11.96875 5.328125 -12.03125 4.984375 -12.15625 C 4.648438 -12.289062 4.363281 -12.472656 4.125 -12.703125 C 3.882812 -12.929688 3.695312 -13.207031 3.5625 -13.53125 C 3.425781 -13.851562 3.359375 -14.21875 3.359375 -14.625 C 3.359375 -14.851562 3.382812 -15.085938 3.4375 -15.328125 C 3.5 -15.578125 3.578125 -15.816406 3.671875 -16.046875 C 3.773438 -16.285156 3.894531 -16.515625 4.03125 -16.734375 C 4.175781 -16.953125 4.332031 -17.132812 4.5 -17.28125 Z M 4.5 -17.28125 "/></g></g><g style="fill:#3f1918;fill-opacity:1;"><g transform="translate(314.044228, 25.75516)"><path style="stroke:none" d="M 9.328125 -1.5625 C 9.160156 -1.289062 8.953125 -1.046875 8.703125 -0.828125 C 8.453125 -0.617188 8.175781 -0.4375 7.875 -0.28125 C 7.582031 -0.132812 7.273438 -0.0195312 6.953125 0.0625 C 6.628906 0.15625 6.3125 0.203125 6 0.203125 C 5.570312 0.203125 5.207031 0.125 4.90625 -0.03125 C 4.601562 -0.1875 4.359375 -0.394531 4.171875 -0.65625 C 3.984375 -0.914062 3.84375 -1.21875 3.75 -1.5625 C 3.65625 -1.90625 3.609375 -2.265625 3.609375 -2.640625 C 3.609375 -3.128906 3.679688 -3.648438 3.828125 -4.203125 C 3.984375 -4.765625 4.1875 -5.316406 4.4375 -5.859375 C 4.6875 -6.410156 4.972656 -6.914062 5.296875 -7.375 C 5.628906 -7.84375 5.976562 -8.234375 6.34375 -8.546875 C 6 -8.328125 5.628906 -8.15625 5.234375 -8.03125 C 4.835938 -7.90625 4.4375 -7.84375 4.03125 -7.84375 C 3.726562 -7.84375 3.46875 -7.863281 3.25 -7.90625 C 3.03125 -7.957031 2.785156 -8.050781 2.515625 -8.1875 L 1.03125 -5.078125 L 0.421875 -5.3125 L 1.96875 -8.484375 C 1.800781 -8.597656 1.625 -8.742188 1.4375 -8.921875 C 1.25 -9.097656 1.113281 -9.273438 1.03125 -9.453125 L 3.03125 -11.6875 C 3.113281 -11.425781 3.226562 -11.164062 3.375 -10.90625 C 3.53125 -10.644531 3.710938 -10.410156 3.921875 -10.203125 C 4.128906 -9.992188 4.359375 -9.820312 4.609375 -9.6875 C 4.859375 -9.550781 5.132812 -9.484375 5.4375 -9.484375 C 5.9375 -9.484375 6.425781 -9.578125 6.90625 -9.765625 C 7.382812 -9.953125 7.832031 -10.179688 8.25 -10.453125 L 8.625 -10.0625 C 8.257812 -9.726562 7.894531 -9.359375 7.53125 -8.953125 C 7.164062 -8.546875 6.832031 -8.113281 6.53125 -7.65625 C 6.238281 -7.195312 6 -6.710938 5.8125 -6.203125 C 5.632812 -5.703125 5.546875 -5.191406 5.546875 -4.671875 C 5.546875 -4.378906 5.585938 -4.046875 5.671875 -3.671875 C 5.753906 -3.304688 5.878906 -2.957031 6.046875 -2.625 C 6.222656 -2.300781 6.4375 -2.023438 6.6875 -1.796875 C 6.945312 -1.578125 7.257812 -1.46875 7.625 -1.46875 C 7.875 -1.46875 8.113281 -1.507812 8.34375 -1.59375 C 8.582031 -1.6875 8.796875 -1.800781 8.984375 -1.9375 Z M 9.328125 -1.5625 "/></g></g><g style="fill:#3f1918;fill-opacity:1;"><g transform="translate(323.87973, 25.75516)"><path style="stroke:none" d="M 4.453125 -18.703125 L 3.703125 -13.46875 L 2.296875 -13.03125 L 1.4375 -17.671875 Z M 6.4375 -1.671875 C 6.21875 -1.203125 5.960938 -0.84375 5.671875 -0.59375 C 5.378906 -0.351562 5.097656 -0.175781 4.828125 -0.0625 C 4.515625 0.0703125 4.195312 0.148438 3.875 0.171875 C 3.445312 0.171875 3.09375 0.101562 2.8125 -0.03125 C 2.539062 -0.164062 2.320312 -0.34375 2.15625 -0.5625 C 2 -0.78125 1.890625 -1.023438 1.828125 -1.296875 C 1.765625 -1.578125 1.734375 -1.863281 1.734375 -2.15625 L 1.734375 -10.1875 L 4.375 -11.09375 L 4.375 -2.078125 C 4.375 -1.847656 4.425781 -1.664062 4.53125 -1.53125 C 4.632812 -1.394531 4.769531 -1.320312 4.9375 -1.3125 C 5.101562 -1.3125 5.285156 -1.375 5.484375 -1.5 C 5.679688 -1.625 5.867188 -1.828125 6.046875 -2.109375 Z M 6.4375 -1.671875 "/></g></g><g style="fill:#3f1918;fill-opacity:1;"><g transform="translate(330.54665, 25.75516)"><path style="stroke:none" d="M 13.390625 -1.671875 C 13.273438 -1.421875 13.125 -1.1875 12.9375 -0.96875 C 12.757812 -0.75 12.554688 -0.550781 12.328125 -0.375 C 12.109375 -0.207031 11.867188 -0.078125 11.609375 0.015625 C 11.347656 0.117188 11.082031 0.171875 10.8125 0.171875 C 10.050781 0.171875 9.5 -0.0351562 9.15625 -0.453125 C 8.820312 -0.867188 8.65625 -1.4375 8.65625 -2.15625 L 8.65625 -7.984375 C 8.65625 -8.046875 8.648438 -8.125 8.640625 -8.21875 C 8.640625 -8.3125 8.625 -8.394531 8.59375 -8.46875 C 8.570312 -8.550781 8.535156 -8.617188 8.484375 -8.671875 C 8.441406 -8.734375 8.375 -8.765625 8.28125 -8.765625 C 8.019531 -8.765625 7.75 -8.601562 7.46875 -8.28125 C 7.195312 -7.957031 6.9375 -7.535156 6.6875 -7.015625 C 6.4375 -6.503906 6.203125 -5.925781 5.984375 -5.28125 C 5.765625 -4.644531 5.570312 -4.015625 5.40625 -3.390625 C 5.25 -2.765625 5.125 -2.175781 5.03125 -1.625 C 4.945312 -1.082031 4.90625 -0.648438 4.90625 -0.328125 L 2.296875 0.59375 L 2.296875 -9.046875 C 2.296875 -9.234375 2.242188 -9.40625 2.140625 -9.5625 C 2.046875 -9.726562 1.898438 -9.8125 1.703125 -9.8125 C 1.460938 -9.8125 1.242188 -9.722656 1.046875 -9.546875 C 0.859375 -9.367188 0.707031 -9.191406 0.59375 -9.015625 L 0.203125 -9.453125 C 0.316406 -9.691406 0.460938 -9.921875 0.640625 -10.140625 C 0.816406 -10.367188 1.015625 -10.566406 1.234375 -10.734375 C 1.460938 -10.910156 1.707031 -11.046875 1.96875 -11.140625 C 2.226562 -11.242188 2.503906 -11.296875 2.796875 -11.296875 C 3.535156 -11.296875 4.070312 -11.085938 4.40625 -10.671875 C 4.738281 -10.253906 4.90625 -9.691406 4.90625 -8.984375 L 4.90625 -4.3125 C 4.988281 -4.707031 5.101562 -5.15625 5.25 -5.65625 C 5.394531 -6.15625 5.570312 -6.660156 5.78125 -7.171875 C 6 -7.691406 6.238281 -8.195312 6.5 -8.6875 C 6.757812 -9.1875 7.046875 -9.628906 7.359375 -10.015625 C 7.679688 -10.398438 8.023438 -10.707031 8.390625 -10.9375 C 8.765625 -11.175781 9.171875 -11.296875 9.609375 -11.296875 C 10.054688 -11.296875 10.394531 -11.195312 10.625 -11 C 10.851562 -10.800781 11.015625 -10.550781 11.109375 -10.25 C 11.210938 -9.957031 11.269531 -9.628906 11.28125 -9.265625 C 11.289062 -8.898438 11.296875 -8.550781 11.296875 -8.21875 L 11.296875 -2.078125 C 11.296875 -1.890625 11.34375 -1.710938 11.4375 -1.546875 C 11.53125 -1.390625 11.679688 -1.3125 11.890625 -1.3125 C 12.109375 -1.3125 12.3125 -1.398438 12.5 -1.578125 C 12.695312 -1.753906 12.851562 -1.929688 12.96875 -2.109375 Z M 13.390625 -1.671875 "/></g></g><g style="fill:#3f1918;fill-opacity:1;"><g transform="translate(344.109869, 25.75516)"><path style="stroke:none" d="M 6.75 -1.671875 C 6.53125 -1.203125 6.273438 -0.84375 5.984375 -0.59375 C 5.703125 -0.351562 5.421875 -0.175781 5.140625 -0.0625 C 4.828125 0.0703125 4.503906 0.148438 4.171875 0.171875 C 3.742188 0.171875 3.390625 0.101562 3.109375 -0.03125 C 2.835938 -0.164062 2.625 -0.34375 2.46875 -0.5625 C 2.3125 -0.78125 2.203125 -1.023438 2.140625 -1.296875 C 2.078125 -1.578125 2.046875 -1.863281 2.046875 -2.15625 L 2.046875 -9.65625 L 0.53125 -9.65625 L 1.140625 -11.09375 L 2.046875 -11.09375 L 2.046875 -16.171875 L 4.671875 -17.09375 L 4.671875 -11.09375 L 7.390625 -11.09375 L 6.8125 -9.65625 L 4.671875 -9.65625 L 4.671875 -2.078125 C 4.671875 -1.847656 4.722656 -1.664062 4.828125 -1.53125 C 4.929688 -1.394531 5.0625 -1.320312 5.21875 -1.3125 C 5.382812 -1.3125 5.566406 -1.375 5.765625 -1.5 C 5.972656 -1.625 6.171875 -1.828125 6.359375 -2.109375 Z M 6.75 -1.671875 "/></g></g><g style="fill:#3f1918;fill-opacity:1;"><g transform="translate(351.809086, 25.75516)"><path style="stroke:none" d="M 3.375 2.390625 C 3.375 2.648438 3.328125 2.894531 3.234375 3.125 C 3.148438 3.363281 3.03125 3.582031 2.875 3.78125 C 2.726562 3.976562 2.554688 4.160156 2.359375 4.328125 C 2.160156 4.503906 1.957031 4.65625 1.75 4.78125 L 1.375 4.46875 C 1.5 4.351562 1.613281 4.207031 1.71875 4.03125 C 1.820312 3.851562 1.894531 3.6875 1.9375 3.53125 C 1.675781 3.445312 1.460938 3.300781 1.296875 3.09375 C 1.128906 2.894531 1.046875 2.660156 1.046875 2.390625 C 1.046875 2.078125 1.15625 1.800781 1.375 1.5625 C 1.601562 1.332031 1.875 1.21875 2.1875 1.21875 C 2.519531 1.21875 2.800781 1.332031 3.03125 1.5625 C 3.257812 1.800781 3.375 2.078125 3.375 2.390625 Z M 3.375 2.390625 "/></g></g><g clip-rule="nonzero" clip-path="url(#35eb21bd06)"><g style="fill:#3f1918;fill-opacity:1;"><g transform="translate(351.809086, 25.75516)"><path style="stroke:none" d="M 4.453125 -18.703125 L 3.703125 -13.46875 L 2.296875 -13.03125 L 1.4375 -17.671875 Z M 6.4375 -1.671875 C 6.21875 -1.203125 5.960938 -0.84375 5.671875 -0.59375 C 5.378906 -0.351562 5.097656 -0.175781 4.828125 -0.0625 C 4.515625 0.0703125 4.195312 0.148438 3.875 0.171875 C 3.445312 0.171875 3.09375 0.101562 2.8125 -0.03125 C 2.539062 -0.164062 2.320312 -0.34375 2.15625 -0.5625 C 2 -0.78125 1.890625 -1.023438 1.828125 -1.296875 C 1.765625 -1.578125 1.734375 -1.863281 1.734375 -2.15625 L 1.734375 -10.1875 L 4.375 -11.09375 L 4.375 -2.078125 C 4.375 -1.847656 4.425781 -1.664062 4.53125 -1.53125 C 4.632812 -1.394531 4.769531 -1.320312 4.9375 -1.3125 C 5.101562 -1.3125 5.285156 -1.375 5.484375 -1.5 C 5.679688 -1.625 5.867188 -1.828125 6.046875 -2.109375 Z M 6.4375 -1.671875 "/></g></g></g></g></svg>